<svg display="none" xmlns="http://www.w3.org/2000/svg">


   <symbol xmlns="http://www.w3.org/2000/svg" viewBox="0 0 18 13" id="enter">
    <path d="M9.62056 9.09278L10.6389 10.1111L14.25 6.5L10.6389 2.88889L9.62056 3.90722L11.4839 5.77778H0V7.22222H11.4839L9.62056 9.09278ZM16.0556 0H5.94444C5.14278 0 4.5 0.65 4.5 1.44444V4.33333H5.94444V1.44444H16.0556V11.5556H5.94444V8.66667H4.5V11.5556C4.5 12.35 5.14278 13 5.94444 13H16.0556C16.85 13 17.5 12.35 17.5 11.5556V1.44444C17.5 0.65 16.85 0 16.0556 0Z" ></path>
  </symbol>

<symbol  xmlns="http://www.w3.org/2000/svg" viewBox="0 0 23 22" id="admin">
    <rect width="6.8678" height="1.71695" transform="matrix(-0.718931 0.695081 0.718931 0.695081 4.9375 15.6534)" fill="white"></rect>
    <path fill-rule="evenodd" clip-rule="evenodd" d="M12.0969 18C7.53041 18 3.99692 14.3229 3.99692 10C3.99692 5.67715 7.53041 2 12.0969 2C16.6634 2 20.1969 5.67715 20.1969 10C20.1969 14.3229 16.6634 18 12.0969 18ZM12.0969 20C6.57408 20 2.09692 15.5228 2.09692 10C2.09692 4.47715 6.57408 0 12.0969 0C17.6198 0 22.0969 4.47715 22.0969 10C22.0969 15.5228 17.6198 20 12.0969 20Z" fill="white"></path>
  </symbol>

 <symbol fill="none" xmlns="http://www.w3.org/2000/svg" viewBox="0 0 23 22" id="search">
    <rect width="6.8678" height="1.71695" transform="matrix(-0.718931 0.695081 0.718931 0.695081 4.9375 15.6534)" fill="white"></rect>
    <path fill-rule="evenodd" clip-rule="evenodd" d="M12.0969 18C7.53041 18 3.99692 14.3229 3.99692 10C3.99692 5.67715 7.53041 2 12.0969 2C16.6634 2 20.1969 5.67715 20.1969 10C20.1969 14.3229 16.6634 18 12.0969 18ZM12.0969 20C6.57408 20 2.09692 15.5228 2.09692 10C2.09692 4.47715 6.57408 0 12.0969 0C17.6198 0 22.0969 4.47715 22.0969 10C22.0969 15.5228 17.6198 20 12.0969 20Z" fill="white"></path>
  </symbol>

</svg>


